<?xml version="1.0" encoding="utf-8"?>
<svg xmlns="http://www.w3.org/2000/svg" style="margin: auto; background: rgb(241, 242, 243); display: block; shape-rendering: auto;" width="280" height="250" preserveAspectRatio="xMidYMid">
<style type="text/css">
  text {
    text-anchor: middle; font-size: 50px; opacity: 0;
  }
</style>
<g style="transform-origin: 140px 125px; transform: scale(0.625);">
<g transform="translate(140,125)">
  <g transform="translate(0,0)"><g class="path" style="transform: scale(0.91); transform-origin: -187.08px -6.18138px; animation: 1s linear -0.6s infinite normal forwards running breath-a32ccd73-1c44-431c-b3f8-48b42d41c4a9;"><path d="M16.72-43.52L22.64-31.60L23.60-31.60L29.52-42.48L35.52-55.68L45.28-54.24L37.92-40.88L27.52-20.56L28.40 0L17.20 0L18-19.20L7.92-39.68L0.24-53.68L11.52-55.68L16.72-43.52" fill="#93dbe9" stroke="none" stroke-width="none" transform="translate(-209.84004592895508,21.658622169494627)" style="fill: rgb(147, 219, 233);"></path></g><g class="path" style="transform: scale(0.91); transform-origin: -146.6px 1.49862px; animation: 1s linear -0.54s infinite normal forwards running breath-a32ccd73-1c44-431c-b3f8-48b42d41c4a9;"><path d="M64.56-8.16L64.56-8.16L64.56-8.16Q66.88-8.16 69.44-9.36L69.44-9.36L69.44-9.36Q72-10.56 73.44-11.76L73.44-11.76L74.88-12.96L78.56-8.48L78.56-8.48Q77.76-7.12 76.08-5.36L76.08-5.36L76.08-5.36Q74.40-3.60 72.68-2.36L72.68-2.36L72.68-2.36Q70.96-1.12 68.12-0.12L68.12-0.12L68.12-0.12Q65.28 0.88 62.24 0.88L62.24 0.88L62.24 0.88Q55.76 0.88 51.68-4.04L51.68-4.04L51.68-4.04Q47.60-8.96 47.60-16.72L47.60-16.72L47.60-16.72Q47.60-26.48 53.28-33.84L53.28-33.84L53.28-33.84Q58.96-41.20 66.56-41.20L66.56-41.20L66.56-41.20Q72.40-41.20 75.64-37.92L75.64-37.92L75.64-37.92Q78.88-34.64 78.88-28.72L78.88-28.72L78.88-28.72Q78.88-25.20 77.68-20.72L77.68-20.72L76.08-19.04L56.08-17.20L56.08-17.20Q57.44-8.16 64.56-8.16zM64.56-32.96L64.56-32.96L64.56-32.96Q61.04-32.96 58.64-30.12L58.64-30.12L58.64-30.12Q56.24-27.28 55.84-22.88L55.84-22.88L69.44-24.56L69.44-24.56Q69.68-26.40 69.68-27.60L69.68-27.60L69.68-27.60Q69.68-32.96 64.56-32.96" fill="#93dbe9" stroke="none" stroke-width="none" transform="translate(-209.84004592895508,21.658622169494627)" style="fill: rgb(104, 156, 197);"></path></g><g class="path" style="transform: scale(0.91); transform-origin: -93.56px -6.18138px; animation: 1s linear -0.48s infinite normal forwards running breath-a32ccd73-1c44-431c-b3f8-48b42d41c4a9;"><path d="M110.24-43.52L116.16-31.60L117.12-31.60L123.04-42.48L129.04-55.68L138.80-54.24L131.44-40.88L121.04-20.56L121.92 0L110.72 0L111.52-19.20L101.44-39.68L93.76-53.68L105.04-55.68L110.24-43.52" fill="#93dbe9" stroke="none" stroke-width="none" transform="translate(-209.84004592895508,21.658622169494627)" style="fill: rgb(94, 111, 163);"></path></g><g class="path" style="transform: scale(0.91); transform-origin: -60.84px 1.29862px; animation: 1s linear -0.42s infinite normal forwards running breath-a32ccd73-1c44-431c-b3f8-48b42d41c4a9;"><path d="M143.68-38.72L154.40-40.72L153.44-20.80L154.32-2L143.60 0L144.56-19.44L143.68-38.72" fill="#93dbe9" stroke="none" stroke-width="none" transform="translate(-209.84004592895508,21.658622169494627)" style="fill: rgb(59, 67, 104);"></path></g><g class="path" style="transform: scale(0.91); transform-origin: -60.48px -31.1414px; animation: 1s linear -0.36s infinite normal forwards running breath-a32ccd73-1c44-431c-b3f8-48b42d41c4a9;"><path d="M143.12-52.44L143.12-52.44L143.12-52.44Q143.12-55.12 145.20-57.24L145.20-57.24L145.20-57.24Q147.28-59.36 150.00-59.36L150.00-59.36L150.00-59.36Q152.72-59.36 154.16-57.88L154.16-57.88L154.16-57.88Q155.60-56.40 155.60-53.44L155.60-53.44L155.60-53.44Q155.60-50.48 153.56-48.36L153.56-48.36L153.56-48.36Q151.52-46.24 148.84-46.24L148.84-46.24L148.84-46.24Q146.16-46.24 144.64-48L144.64-48L144.64-48Q143.12-49.76 143.12-52.44" fill="#93dbe9" stroke="none" stroke-width="none" transform="translate(-209.84004592895508,21.658622169494627)" style="fill: rgb(25, 29, 58);"></path></g><g class="path" style="transform: scale(0.91); transform-origin: -30.56px 1.49862px; animation: 1s linear -0.3s infinite normal forwards running breath-a32ccd73-1c44-431c-b3f8-48b42d41c4a9;"><path d="M186.40-20.24L186.40-20.24Q186.40-25.76 185.44-27.60L185.44-27.60L185.44-27.60Q184.48-29.44 180.96-29.44L180.96-29.44L180.96-29.44Q177.44-29.44 172.96-26.64L172.96-26.64L172.96-20.80L173.84-2L163.12 0L164.08-19.44L164.08-19.44Q163.76-30.16 162.32-38.64L162.32-38.64L172.00-40.72L172.00-40.72Q172.56-36.08 172.80-31.68L172.80-31.68L172.80-31.68Q174.00-33.28 175.52-34.84L175.52-34.84L175.52-34.84Q177.04-36.40 180.32-38.36L180.32-38.36L180.32-38.36Q183.60-40.32 187.24-40.32L187.24-40.32L187.24-40.32Q190.88-40.32 193.36-37.48L193.36-37.48L193.36-37.48Q195.84-34.64 195.84-29.76L195.84-29.76L195.36-20.80L196.24-1.60L185.44 0.40L186.40-20.24" fill="#93dbe9" stroke="none" stroke-width="none" transform="translate(-209.84004592895508,21.658622169494627)" style="fill: rgb(217, 219, 238);"></path></g><g class="path" style="transform: scale(0.91); transform-origin: 5.27996px -3.10138px; animation: 1s linear -0.24s infinite normal forwards running breath-a32ccd73-1c44-431c-b3f8-48b42d41c4a9;"><path d="M203.52-38.72L208.16-38.72L208.16-47.44L218.96-49.52L217.92-38.72L227.60-38.72L226.72-32.16L217.60-32.16L217.20-15.44L217.20-15.44Q217.20-11.68 217.92-10.44L217.92-10.44L217.92-10.44Q218.64-9.20 220.56-9.20L220.56-9.20L220.56-9.20Q222.48-9.20 225.68-10.08L225.68-10.08L226.16-4.40L226.16-4.40Q220.88 0 216.88 0L216.88 0L216.88 0Q212.88 0 210.32-2.92L210.32-2.92L210.32-2.92Q207.76-5.84 207.76-10.56L207.76-10.56L208.24-19.52L208.16-32.16L202.64-32.16L203.52-38.72" fill="#93dbe9" stroke="none" stroke-width="none" transform="translate(-209.84004592895508,21.658622169494627)" style="fill: rgb(179, 183, 226);"></path></g><g class="path" style="transform: scale(0.91); transform-origin: 57.76px -5.70138px; animation: 1s linear -0.18s infinite normal forwards running breath-a32ccd73-1c44-431c-b3f8-48b42d41c4a9;"><path d="M247.52-53.60L258.88-55.60L258.00-29.52L278.40-55.44L286.56-50L268.16-28.64L287.68-5.52L277.44 0.88L257.92-26.72L257.76-20.80L258.72 0L247.52 0L248.48-19.44L247.52-53.60" fill="#93dbe9" stroke="none" stroke-width="none" transform="translate(-209.84004592895508,21.658622169494627)" style="fill: rgb(147, 219, 233);"></path></g><g class="path" style="transform: scale(0.91); transform-origin: 96px 10.0986px; animation: 1s linear -0.12s infinite normal forwards running breath-a32ccd73-1c44-431c-b3f8-48b42d41c4a9;"><path d="M303.44 17.60L293.12 15.44L301.36-3.04L295.44-19.20L287.36-38.64L298-40.64L303.12-23.60L305.76-15.52L306.80-15.52L308.72-21.36L314.48-40.72L324.32-39.52L310.16-2.32L303.44 17.60" fill="#93dbe9" stroke="none" stroke-width="none" transform="translate(-209.84004592895508,21.658622169494627)" style="fill: rgb(104, 156, 197);"></path></g><g class="path" style="transform: scale(0.91); transform-origin: 133.28px 1.17862px; animation: 1s linear -0.06s infinite normal forwards running breath-a32ccd73-1c44-431c-b3f8-48b42d41c4a9;"><path d="M337.20 0L337.20 0Q332.48 0 329.48-3L329.48-3L329.48-3Q326.48-6 326.48-11.08L326.48-11.08L326.48-11.08Q326.48-16.16 331.12-19.88L331.12-19.88L331.12-19.88Q335.76-23.60 342.40-23.60L342.40-23.60L347.84-23.60L347.84-24.96L347.84-24.96Q347.84-28.88 346.24-30.32L346.24-30.32L346.24-30.32Q344.64-31.76 340.24-31.76L340.24-31.76L340.24-31.76Q338.40-31.76 335.88-31L335.88-31L335.88-31Q333.36-30.24 330.24-28.64L330.24-28.64L327.92-34.96L327.92-34.96Q331.36-37.36 336.28-39.28L336.28-39.28L336.28-39.28Q341.20-41.20 344.40-41.20L344.40-41.20L344.40-41.20Q356.96-41.20 356.96-29.04L356.96-29.04L356.96-13.36L356.96-13.36Q356.96-8.88 359.76-3.36L359.76-3.36L351.28 0.24L351.28 0.24Q349.28-3.60 348.32-6.64L348.32-6.64L348.32-6.64Q343.92 0 337.20 0L337.20 0zM340.56-8.16L340.56-8.16L340.56-8.16Q343.76-8.16 347.84-11.44L347.84-11.44L347.84-16.80L347.84-16.80Q343.60-17.76 340.96-17.76L340.96-17.76L340.96-17.76Q335.92-17.76 335.92-13.28L335.92-13.28L335.92-13.28Q335.92-10.96 337.20-9.56L337.20-9.56L337.20-9.56Q338.48-8.16 340.56-8.16" fill="#93dbe9" stroke="none" stroke-width="none" transform="translate(-209.84004592895508,21.658622169494627)" style="fill: rgb(94, 111, 163);"></path></g><g class="path" style="transform: scale(0.91); transform-origin: 181.64px 1.41862px; animation: 1s linear 0s infinite normal forwards running breath-a32ccd73-1c44-431c-b3f8-48b42d41c4a9;"><path d="M399.60-23.04L402.40-10L403.44-10L406-20.96L410.16-40.72L419.92-39.52L414.08-19.68L409.20-0.96L396.08 0.24L391.68-19.20L391.28-20.48L385.92-0.96L373.20 0.24L368.56-19.20L363.04-38.64L373.52-40.64L376.80-23.04L379.68-10L380.72-10L387.60-32.80L385.92-38.64L396.24-40.64L399.60-23.04" fill="#93dbe9" stroke="none" stroke-width="none" transform="translate(-209.84004592895508,21.658622169494627)" style="fill: rgb(59, 67, 104);"></path></g></g>
</g>
</g>
<style id="breath-a32ccd73-1c44-431c-b3f8-48b42d41c4a9" data-anikit="">@keyframes breath-a32ccd73-1c44-431c-b3f8-48b42d41c4a9
{
  0% {
    animation-timing-function: cubic-bezier(0.9647,0.2413,-0.0705,0.7911);
    transform: scale(0.9099999999999999);
  }
  51% {
    animation-timing-function: cubic-bezier(0.9226,0.2631,-0.0308,0.7628);
    transform: scale(1.02994);
  }
  100% {
    transform: scale(0.9099999999999999);
  }
}</style></svg>